<svg fill="none" height="84" viewBox="0 0 182 84" width="182" xmlns="http://www.w3.org/2000/svg" xmlns:xlink="http://www.w3.org/1999/xlink"><mask id="a" height="13" maskUnits="userSpaceOnUse" width="7" x="84" y="0"><path clip-rule="evenodd" d="m84.2886.7948h6.0606v11.3465h-6.0606z" fill="#fff" fill-rule="evenodd"/></mask><mask id="b" height="13" maskUnits="userSpaceOnUse" width="8" x="90" y="0"><path clip-rule="evenodd" d="m90.9695.7948h6.0615v11.3465h-6.0615z" fill="#fff" fill-rule="evenodd"/></mask><mask id="c" height="69" maskUnits="userSpaceOnUse" width="182" x="0" y="15"><path clip-rule="evenodd" d="m.858154 83.8321h180.221846v-68.7873h-180.221846z" fill="#fff" fill-rule="evenodd"/></mask><path clip-rule="evenodd" d="m80.4916 14.7155c2.5119.9586 4.1761 2.5518 4.1761 2.5518.0189-.7736.2197-1.5685.5094-2.2416 0 0-.8041-1.501-3.1769-3.127-2.5481-1.747-5.4567-2.23415-5.4567-2.23415-.5934 1.28785-1.0148 2.67025-1.2337 4.11855 0 0 2.1284-.232 5.1818.9324z" fill="#0c294e" fill-rule="evenodd"/><path clip-rule="evenodd" d="m82.2956 9.64358c2.3967 2.31722 3.2625 4.64602 3.2625 4.64602.4436-.7109 1.0329-1.3232 1.7284-1.7972 0 0-.8897-2.79369-2.3308-4.8575-1.4412-2.06299-3.7761-3.77626-3.7761-3.77626-1.1399.87885-2.1547 1.91076-3.0107 3.06528 0 0 2.377 1.02697 4.1267 2.71966z" fill="#0c294e" fill-rule="evenodd"/><g mask="url(#a)"><path clip-rule="evenodd" d="m86.5116 6.74971c1.0823 2.76739 1.358 5.39159 1.358 5.39159.7111-.3752 1.6345-.6649 2.479-.734 0 0 .0427-2.6703-.5449-5.41465-.688-3.20764-1.4732-5.198216-1.4732-5.198216-1.4197.218066-2.7761.627046-4.0419 1.198956 0 0 1.4748 2.84474 2.223 4.75632z" fill="#0c294e" fill-rule="evenodd"/></g><path clip-rule="evenodd" d="m100.828 14.7155c-2.5129.9586-4.1762 2.5518-4.1762 2.5518-.0189-.7736-.2198-1.5685-.5095-2.2416 0 0 .8041-1.501 3.1761-3.127 2.5486-1.747 5.4576-2.23415 5.4576-2.23415.594 1.28785 1.014 2.67025 1.233 4.11855 0 0-2.128-.232-5.181.9324z" fill="#0c294e" fill-rule="evenodd"/><path clip-rule="evenodd" d="m99.0233 9.64358c-2.3958 2.31722-3.2625 4.64602-3.2625 4.64602-.4428-.7109-1.0329-1.3232-1.7283-1.7972 0 0 .8897-2.79369 2.3316-4.8575 1.4411-2.06299 3.7749-3.77626 3.7749-3.77626 1.14.87885 2.155 1.91076 3.012 3.06528 0 0-2.378 1.02697-4.1277 2.71966z" fill="#0c294e" fill-rule="evenodd"/><g mask="url(#b)"><path clip-rule="evenodd" d="m94.808 6.74971c-1.0831 2.76739-1.358 5.39159-1.358 5.39159-.7111-.3752-1.6346-.6649-2.4798-.734 0 0-.0428-2.6703.5456-5.41465.6881-3.20764 1.4724-5.198216 1.4724-5.198216 1.4206.218066 2.777.627046 4.0428 1.198956 0 0-1.4757 2.84474-2.223 4.75632z" fill="#0c294e" fill-rule="evenodd"/></g><g clip-rule="evenodd" fill="#0c294e" fill-rule="evenodd"><path d="m82.5753 24.1374c2.9934-1.4252 6.0123-1.1306 6.0123-1.1306-1.0716-.3983-1.9983-1.0879-2.6815-1.97 0 0-2.6806-.3201-4.7349.0938-3.1094.627-4.4871 1.7067-4.4871 1.7067.6312 1.2985 1.4403 2.495 2.395 3.5606 0 0 1.2839-1.2072 3.4962-2.2605z"/><path d="m80.2485 19.6254c3.0518-.1464 5.1571.6509 5.1571.6509-.3786-.6821-.6263-1.445-.7094-2.2555 0 0-2.4239-1.3808-4.6584-1.6804-3.0929-.4147-4.8962.1786-4.8962.1786.0395 1.4648.2831 2.8793.7037 4.2157 0 0 1.9819-.9932 4.4032-1.1093z"/><path d="m90.6593 26.4738c4.3686 0 6.2797 3.7804 6.2797 3.7804 1.3629-.6048 2.6213-1.3973 3.742-2.3436 0 0-3.6902-4.6419-10.0217-4.6419-6.3308 0-10.0221 4.6419-10.0221 4.6419 1.1226.9463 2.381 1.7388 3.7432 2.3436 0 0 1.9102-3.7804 6.2789-3.7804z"/><path d="m98.7438 24.1374c-2.9934-1.4252-6.0131-1.1306-6.0131-1.1306 1.0724-.3983 1.9992-1.0879 2.6823-1.97 0 0 2.6806-.3201 4.735.0938 3.109.627 4.488 1.7067 4.488 1.7067-.632 1.2985-1.441 2.495-2.397 3.5606 0 0-1.283-1.2072-3.4952-2.2605z"/><path d="m101.071 19.6254c-3.0529-.1464-5.1574.6509-5.1574.6509.3786-.6821.6255-1.445.7094-2.2555 0 0 2.4239-1.3808 4.658-1.6804 3.093-.4147 4.897.1786 4.897.1786-.04 1.4648-.284 2.8793-.704 4.2157 0 0-1.983-.9932-4.403-1.1093z"/><path d="m29.377 36.0982v5.5291h2.3325c2.4716 0 3.5432-.9678 3.5432-2.765 0-1.7963-1.0543-2.7641-3.5432-2.7641zm0 10.4533h1.6074v1.2606h-4.6485v-1.2606h1.6066v-10.5043h-1.6066v-1.2623h5.3736c2.9728 0 4.9769 1.2961 4.9769 4.0774 0 2.7822-2.0214 4.0775-4.9769 4.0775h-2.3325z"/><path d="m45.3461 42.646c.0173-1.7618-1.3136-3.1097-3.093-3.1097-1.7802 0-3.111 1.3479-3.0937 3.1097zm1.1061 2.5057c-.4148 1.6244-1.9357 2.8678-4.1991 2.8678-2.7999 0-4.5102-1.7618-4.5102-4.8724 0-2.9533 1.7794-4.8723 4.5102-4.8723 2.9547 0 4.8386 2.2638 4.4584 5.6154h-7.5349c.121 1.4343 1.1235 2.8686 3.0765 2.8686 1.2955 0 2.2461-.5357 2.73-1.6071z"/><path d="m51.4825 46.603h1.4864v1.2096h-4.3546v-1.2096h1.4855v-6.9107h-1.4855v-1.2096h1.4855 1.279v1.3298c.5531-1.0015 1.9185-1.9355 3.7497-1.3134v1.3488c-2.1942-.6221-3.646.5867-3.646 2.7287z"/><path d="m66.0339 46.603h1.4864v1.2096h-4.3546v-1.2096h1.4855v-3.9392c0-2.1939-1.3127-3.1097-2.7472-3.1097-1.4346 0-2.6609 1.0014-2.6609 3.1961v3.8528h1.4856v1.2096h-4.3547v-1.2096h1.4864v-6.9107h-1.4864v-1.2096h1.4864 1.279v1.3298c.5004-.7769 1.572-1.5208 3.0238-1.5208 2.056 0 3.8707 1.1751 3.8707 4.3721z"/><path d="m73.3114 46.7589c1.8148 0 3.1621-1.2796 3.1621-3.6116 0-2.3321-1.3473-3.6109-3.1621-3.6109s-3.1621 1.2788-3.1621 3.6109c0 2.332 1.3473 3.6116 3.1621 3.6116zm0-8.484c2.8682 0 4.5448 2.0564 4.5448 4.8724 0 2.8159-1.6766 4.8723-4.5448 4.8723-2.8683 0-4.5448-2.0564-4.5448-4.8723 0-2.816 1.6765-4.8724 4.5448-4.8724z"/><path d="m80.8995 43.1474c0 2.3675 1.4 3.6117 3.1276 3.6117 1.7283 0 3.1283-1.2442 3.1283-3.6117 0-2.3674-1.4-3.6116-3.1283-3.6116-1.7276 0-3.1276 1.2442-3.1276 3.6116zm7.5859 3.4554h1.4864v1.2096h-2.8164v-1.3298c-.5531.8295-1.7629 1.5372-3.2493 1.5372-2.6609 0-4.3893-2.0902-4.3893-4.8724s1.7284-4.8723 4.3893-4.8723c1.3999 0 2.6271.6221 3.1974 1.5371v-3.8346h-1.4863v-1.2105h2.8682z"/><path d="m99.2542 36.0982v4.8378h3.0588c1.953 0 2.8-.9677 2.8-2.4193 0-1.4508-.83-2.4185-2.8-2.4185zm-3.0584-1.3306h6.1172c2.454 0 4.251 1.3133 4.251 3.7491 0 2.0737-1.313 3.3352-3.214 3.6635l2.125 4.3539h1.694v1.278h-2.713l-2.678-5.5455h-2.5238v4.2848h1.4348v1.2607h-4.4932v-1.2607h1.6066v-10.5223h-1.6066z"/><g mask="url(#c)"><path d="m110.178 36.5133h1.573v-1.7454h-1.573zm1.555 10.0895h1.486v1.2096h-4.354v-1.2096h1.486v-6.9107h-1.486v-1.2096h1.486 1.382z"/><path d="m123.571 44.4091c-.535 2.1247-1.97 3.6109-4.509 3.6109-2.87 0-4.546-2.0564-4.546-4.8724 0-2.8159 1.676-4.8723 4.546-4.8723 1.33 0 2.539.6385 3.092 1.5371v-1.3298h1.332v3.4035h-1.505c-.415-1.2615-1.261-2.3502-2.919-2.3502-1.816 0-3.163 1.2796-3.163 3.6117s1.347 3.6109 3.163 3.6109c1.572 0 2.643-.9505 3.075-2.3494z"/><path d="m126.614 43.1475c0 2.3675 1.4 3.6117 3.128 3.6117 1.727 0 3.128-1.2442 3.128-3.6117s-1.401-3.6117-3.128-3.6117c-1.728 0-3.128 1.2442-3.128 3.6117zm6.204-4.665h2.817v1.2097h-1.487v6.9106h1.487v1.2097h-2.817v-1.3298c-.57.915-1.797 1.5371-3.197 1.5371-2.661 0-4.389-2.0901-4.389-4.8723s1.728-4.8724 4.389-4.8724c1.4 0 2.627.6222 3.197 1.5372z"/><path d="m140.51 46.603h1.486v1.2096h-4.355v-1.2096h1.487v-6.9107h-1.487v-1.2096h1.487 1.278v1.3298c.553-1.0015 1.918-1.9355 3.75-1.3134v1.3488c-2.194-.6221-3.646.5867-3.646 2.7287z"/><path d="m146.248 43.1474c0 2.3675 1.399 3.6117 3.127 3.6117s3.129-1.2442 3.129-3.6117c0-2.3674-1.401-3.6116-3.129-3.6116s-3.127 1.2442-3.127 3.6116zm7.587 3.4554h1.484v1.2096h-2.815v-1.3298c-.553.8295-1.763 1.5372-3.25 1.5372-2.66 0-4.389-2.0902-4.389-4.8724s1.729-4.8723 4.389-4.8723c1.4 0 2.628.6221 3.198 1.5371v-3.8346h-1.487v-1.2105h2.87z"/><path d="m10.4577 67.8383-2.71596.7135c-1.03949.2255-1.96704.3357-2.78102.3357-2.73576 0-4.10281-.9866-4.10281-2.9599 0-.9439.44279-2.0523 1.3259-3.3179.74155-1.0591 1.57199-1.9445 2.48473-2.6563 1.11439-.8616 2.1012-1.2936 2.96868-1.2936 1.25265 0 1.87815.5908 1.87815 1.7741 0 .1959-.06913.8345-.21645 1.9125-.32675-.0494-.52016-.0914-.58436-.1218-.1144-.0601-.23785-.2107-.36789-.4485.13991-.5752.21481-1.0179.21481-1.3265 0-.5769-.32016-.8641-.95636-.8641-.87653 0-1.81808.4255-2.82547 1.2805-.8148.6994-1.50368 1.5042-2.0691 2.4226-.63785 1.0269-.95471 1.9428-.95471 2.7484 0 .7892.38271 1.3915 1.13825 1.8013.61069.3308 1.3473.4971 2.20654.4971.48559 0 1.06501-.0371 1.73084-.1111.23785-.0181.81398-.0947 1.73001-.2304.20247-.0321.49793-.1169.87982-.2584.38106-.1432.6667-.2329.8634-.265.0609.093.1135.214.153.3678z"/><path d="m17.2779 65.1848-2.4206-.7842c-.5975 0-1.1201.4049-1.5769 1.2163-.1654.2797-.4387.9356-.8214 1.9708-.3876 1.0335-1.0082 1.5511-1.8609 1.5511.0494-.4262.3153-1.0047.8-1.747.5235-.8006.8379-1.3923.9432-1.7749.084-.316.1391-.8435.1687-1.5718.0083-.3102.0823-.6295.2173-.9578.1852-.4608.3951-.7036.6329-.7217l.2955.0132.1531 1.0492c.0667.2699.3152.4007.7234.4007h.5268c.0913-.0099.1638-.0148.2131-.0148 1.1844-.0206 1.8543.4386 2.0058 1.3709z"/><path d="m23.5888 61.6392c-.6461.6345-1.0535.9529-1.2189.9406-.112 0-.2445-.042-.4009-.1226-.0288-.0222-.1522-.0913-.3695-.2156l.1086-.2181c.1128-.2361.4955-.6928 1.1399-1.3726l.6807-.7101c.321-.2979.5992-.4485.8345-.4485.3112 0 .4626.1506.4626.4485 0 .3176-.4107.8838-1.237 1.6984zm-.3539 3.0991c-.307-.33-.6823-.4938-1.1243-.4938-.3193 0-.6066.0675-.8642.2008-.0107.0115-.2716.1547-.7851.4353.3086.4905.73.7365 1.2625.7365.609 0 1.1127-.2921 1.5111-.8788zm1.5909 2.9632c-.3086.3374-1.0395.5966-2.1901.7735-.8148.1234-1.6436.1827-2.4839.1827-1.7415 0-2.6074-.4962-2.6074-1.496 0-1.2212.9029-2.2761 2.716-3.1501.6272-.3069 1.279-.5595 1.958-.7537.6568.1538 1.0963.2682 1.3103.339.4658.1522.6946.5398.6946 1.1537 0 .5497-.3481.9809-1.0477 1.3002-.5868.2674-1.1843.404-1.7926.404-.9456 0-1.6246-.1448-2.0361-.4378-.5136.251-.772.5678-.772.9579 0 .6896.6255 1.0368 1.8864 1.0368.4592 0 .9999-.0337 1.6189-.093 1.4485-.1448 2.367-.2172 2.7456-.2172z"/><path d="m32.7738 69.1514v-.0469h.0313v-.0445h-.0313v-.0954h.0626v.0329h-.0313v.0321h.0313v.1218zm-.5094-5.5274c0-.3662-.321-.5481-.9564-.5481-.9383 0-1.7136.2074-2.3308.6287-.577.3901-1.1745.9192-1.7877 1.5734-.7835.8328-1.1761 1.4911-1.1761 1.9766 0 .288.126.5094.3696.6641.2181.1333.4814.1975.7901.1975.8921 0 1.6609-.3136 2.2987-.9381.1564-.1564.5926-.7464 1.3136-1.7767.4395-.6344.8658-.9562 1.2798-.9562.1317-.2855.1992-.5546.1992-.8212zm.5563 5.2204c-.228.4938-.4963.7373-.8033.7373-.3506 0-.7382-.2551-1.1621-.7694-.3267-.3925-.5942-.8113-.795-1.2664-.8642.4131-1.4543.6781-1.763.8031-.7604.2996-1.3736.4452-1.8361.4452-.8124 0-1.2173-.4098-1.2173-1.231 0-1.3257.7177-2.5074 2.1613-3.5516.474-.3358 1.1086-.7028 1.9135-1.0928.9547-.4617 1.6354-.6946 2.037-.6946.2757 0 .5375.1465.7868.4485.242.2971.3688.5917.3688.8772 0 .5678-.2239 1.3101-.6716 2.2292-.4461.9225-.6708 1.4549-.6708 1.5997 0 .4913.0782.8336.228 1.0171.1292.1556.5991.3053 1.4238.4485z"/><path d="m39.4874 59.4455c0 .26-.0897.548-.2633.8632-.0733.135-.3885.5736-.9399 1.3133.2576.1745.5168.3465.7835.5094.2955.2362.4197.5061.3876.8015l-.0148.1703c-.0123 0-.2461-.074-.7119-.2164-.2938-.0921-.5284-.1366-.693-.1366-.5629 0-1.381.5958-2.446 1.7791-1.065 1.1907-1.5984 2.0795-1.5984 2.6646 0 .5044.4543.8697 1.3605 1.0928.5753.1448 1.2206.2139 1.9456.2139.2741 0 .5581-.0165.8461-.0592-.0107.0543.0379.1456.1408.2789-.6478.2444-1.293.372-1.9325.372-2.3111 0-3.4691-.5695-3.4691-1.701 0-.6665.5794-1.6457 1.7407-2.9459l1.3309-1.482-.5408-.0305c-.2271-.0074-.5333.0535-.9135.1852-.7506.2649-1.1901.4048-1.3251.4048-.1729 0-.3358-.0559-.4872-.1654-.1482-.1045-.2223-.2427-.2223-.4081 0-.4016.456-.6032 1.3737-.6032.0922 0 .223.0066.4049.0197.1704.005.3053.0124.3983.0124.7819 0 1.4272-.1333 1.9375-.4032.5094-.265.9555-.7267 1.3473-1.3866.1349-.2271.451-.8616.9415-1.9141.135 0 .27.0947.4074.2774.1424.1835.2115.3522.2115.4937z"/><path d="m45.3986 64.738c-.3111-.3292-.6847-.4938-1.1284-.4938-.3176 0-.6057.0675-.8617.2016-.0123.0107-.274.1539-.7884.4353.3086.4905.7292.7357 1.2641.7357.6066 0 1.1128-.2921 1.5144-.8788zm1.5893 2.964c-.3111.3374-1.042.5958-2.1901.7727-.814.1234-1.6419.1835-2.488.1835-1.7383 0-2.6098-.497-2.6098-1.4968 0-1.2212.9069-2.2753 2.7176-3.1501.628-.3069 1.2823-.5587 1.9629-.7537.6568.1547 1.093.2682 1.307.339.465.1531.6988.5406.6988 1.1545 0 .5497-.3531.9801-1.0494 1.3002-.5868.2666-1.1844.4032-1.7917.4032-.9465 0-1.6272-.1448-2.037-.4369-.5136.2501-.7712.5669-.7712.9578 0 .6896.6271 1.0368 1.8831 1.0368.4609 0 1.0016-.0337 1.618-.0938 1.4494-.1448 2.3679-.2164 2.7498-.2164z"/><path d="m57.7297 62.5023c0 .3695-.2609.8632-.7744 1.4804-.2873.339-.7959.9578-1.5284 1.8531-.5449.6781-.8181 1.3018-.8181 1.8655 0 .2995.1901.4419.5737.4329.0831 0 .1571-.005.2329-.0182h.1522c.1556 0 .3177.0272.4955.0774l.2165.2477c-.0412.0123-.2955.0782-.7572.2008-.3087.0707-.5613.1094-.7572.1094-.4231 0-.721-.1028-.898-.3102-.1415-.1835-.2106-.4921-.2106-.9258v-.3538c0-.1111.0041-.2296.0115-.3539-.7078.4518-1.2091.7588-1.4996.9274-1.2921.7061-2.4082 1.0591-3.344 1.0591-1.0444 0-1.5596-.2485-1.5596-.7546 0-.367.4724-1.1347 1.4222-2.2942.6452-.7933 1.2889-1.5092 1.9144-2.1486.8189-.8344 1.3489-1.25 1.5868-1.25.195 0 .2938.1029.2938.3086 0 .2699-.3753.8336-1.1292 1.6985-.3276.3604-.823.9109-1.4806 1.6524-.6683.7726-1.098 1.3816-1.2971 1.8317l.1563.1564c.0692 0 .1737.0065.312.0172.1284.0099.2321.0132.3045.0132.3226 0 .6576-.0724 1.0181-.2156.2148-.093.5407-.2312.972-.418 1.0921-.4436 1.9275-.8937 2.4995-1.3545.3004-.2362.707-.7118 1.2222-1.4228.2198-.316.637-.8871 1.2346-1.7132.4107-.5539.7226-.8287.9382-.8287.1251 0 .2568.051.405.1522z"/><path d="m64.4123 65.1848-2.4255-.7842c-.5934 0-1.1218.4049-1.572 1.2163-.163.2797-.4387.9356-.8296 1.9708-.3877 1.0335-1.0025 1.5511-1.856 1.5511.0486-.4262.3169-1.0047.8017-1.747.5251-.8006.8378-1.3923.9391-1.7749.0831-.316.1407-.8435.1687-1.5718.0164-.3102.0856-.6295.2189-.9578.1852-.4608.4-.7036.6313-.7217l.2946.0132.1539 1.0492c.0749.2699.3128.4007.7292.4007h.5194c.0946-.0099.1654-.0148.2197-.0148 1.1819-.0206 1.8469.4386 2.0066 1.3709z"/><path d="m73.9902 61.3306c-.0897.4822-.4757.8213-1.1523 1.0155-.4049.1078-1.1185.2831-2.1448.5406-.888.228-1.5292.5481-1.9324.9595 1.297.3176 2.1077.5365 2.4254.66 1.1276.4246 1.6979.9117 1.6979 1.468 0 .8048-.6781 1.552-2.023 2.2498-1.1909.6089-2.2312.9142-3.1193.9142-.7267 0-1.3991-.2872-2.0024-.8517-.6617-.6138-.9638-1.2763-.9103-1.9716l.0148-.2337c.2848.1029.7046.534 1.2486 1.2977.5127.7069.967 1.0623 1.358 1.0623.6699 0 1.5325-.2238 2.5925-.6772 1.2255-.525 1.8346-1.0698 1.8346-1.6359 0-.4016-.3589-.7102-1.0782-.9274-.0329 0-.7983-.1942-2.302-.5867-.828-.214-1.3802-.4674-1.6321-.7538.3062-.3374.9193-.6986 1.837-1.0796.586-.2444 1.4593-.5464 2.6214-.897 1.2534-.381 1.9958-.6122 2.2246-.6912.1301.0675.2815.1177.442.1382z"/><path d="m85.6911 65.8051c0-.813-.3646-1.2211-1.0946-1.2211-.5301 0-1.1589.2411-1.8996.7118-.7992.5126-1.2049 1.0187-1.2049 1.5124 0 .5226.6765.7875 2.0238.7875 1.451 0 2.1753-.5966 2.1753-1.7906zm3.7036-6.5444c-.0708.4229-.3119 1.11-.7242 2.0704l-1.2198 2.8365c-.5251 1.2261-.8477 2.0605-.9703 2.5007.4938 0 .7769.0708.8452.2165-.1136.2559-.3382.5595-.6732.9101-.3934.3983-.7004.6007-.9152.6007-.1622 0-.4066-.0173-.7194-.0527-.3127-.037-.5506-.0559-.7152-.0559-.186 0-.4584.014-.8189.0395-.3588.0247-.6345.037-.8173.037-1.3473 0-2.0197-.3728-2.0197-1.1249 0-.9019.4807-1.7338 1.451-2.4876.9136-.706 1.8403-1.0624 2.7753-1.0624.2889 0 .5728.0609.8527.186.06.0305.3111.1704.7547.4148l.1349-.1383v-.3053l.1572-.1415c-.0518-.307.2264-1.2023.8404-2.6901.6139-1.4886.9934-2.2325 1.1349-2.2325.1786 0 .3547.0757.5408.2173z"/><path d="m94.1794 64.738c-.3102-.3292-.6814-.4938-1.1259-.4938-.3193 0-.609.0675-.8633.2016-.0124.0107-.2708.1539-.7893.4353.3119.4905.73.7357 1.2642.7357.6123 0 1.1143-.2921 1.5143-.8788zm1.5918 2.964c-.3103.3374-1.042.5958-2.195.7727-.8115.1234-1.6387.1835-2.4856.1835-1.7358 0-2.6082-.497-2.6082-1.4968 0-1.2212.907-2.2753 2.7168-3.1501.6313-.3069 1.2848-.5587 1.9638-.7537.6568.1547 1.0938.2682 1.3119.339.4584.1531.6897.5406.6897 1.1545 0 .5497-.3457.9801-1.0494 1.3002-.586.2666-1.1802.4032-1.7884.4032-.9457 0-1.6271-.1448-2.0378-.4369-.5136.2501-.7704.5669-.7704.9578 0 .6896.6272 1.0368 1.8823 1.0368.4642 0 1.0057-.0337 1.6222-.0938 1.4518-.1448 2.3637-.2164 2.7481-.2164z"/><path d="m112.067 67.7162c-.64.497-1.583.8632-2.839 1.1109-.999.209-2.036.3119-3.1.3119-2.371 0-3.555-.7283-3.555-2.1765 0-1.5528 1.465-2.9641 4.402-4.2305.999-.4304 1.955-.7505 2.866-.9562.38.2254.571.4871.571.7718 0 .3712-.125.8353-.385 1.4047-.296.6575-.609.9883-.925.9883-.154 0-.302-.0502-.454-.1498-.149-.0946-.223-.2164-.223-.3579 0-.135.277-.5728.83-1.315-.172-.0305-.345-.056-.506-.0757-.915 0-1.992.3859-3.227 1.1562-1.366.8582-2.052 1.719-2.052 2.5921 0 .6476.321 1.1282.972 1.4334.495.2395 1.099.3555 1.824.3555 1.678 0 3.099-.1399 4.275-.4312.029-.0074.187-.0765.475-.1991.186-.0798.339-.1234.464-.1234.04 0 .08.0082.107.0123l.155-.1366.294-.0173z"/><path d="m120.847 65.7457c0-.5094-.256-.8888-.771-1.1463-.415-.2058-.894-.3103-1.455-.3103-.923 0-1.881.2609-2.884.7719-1.05.5275-1.799 1.1702-2.254 1.9322.699.7085 1.542 1.064 2.518 1.064.938 0 1.899-.1687 2.888-.5111 1.306-.4501 1.958-1.0549 1.958-1.8004zm.85.0897c0 .966-.701 1.7231-2.101 2.2678-1.059.4115-2.176.6172-3.349.6172-2.459 0-3.688-.6073-3.688-1.8227 0-.8607.804-1.7017 2.407-2.5148 1.432-.7216 2.637-1.0804 3.611-1.0804.863 0 1.579.2024 2.149.6032.645.4526.971 1.0961.971 1.9297z"/><path d="m129.887 65.0015c0 .3613-.165.8805-.506 1.5578-.338.6797-.65 1.1536-.942 1.4186.012.135.024.2156.029.2461.022.074.058.153.111.2328-.081.3086-.29.465-.619.465-.174 0-.33-.0502-.469-.1564-.14-.0995-.211-.2345-.211-.4015 0-.2971.262-.8057.791-1.5257.526-.72.784-1.2212.784-1.496 0-.5258-.265-.7892-.803-.7892-.706 0-1.398.3308-2.064.9867-.343.3604-.966.9998-1.87 1.914-.718.7332-1.415 1.1546-2.084 1.2673v-.1415l-.134-.1548c0-.5431.503-1.417 1.51-2.6192.571-.6896.947-1.1916 1.111-1.4969.091-.2699.194-.5365.308-.8031.094-.2074.183-.3522.271-.4296.084-.0847.228-.1267.422-.1267.287 0 .432.1506.432.4485 0 .2024-.026.3678-.073.4946-.017.0386-.127.3151-.34.8311.883-.4707 1.386-.734 1.51-.7842.699-.3424 1.216-.5111 1.546-.5111.387 0 .698.1622.938.4872.234.3259.352.6846.352 1.0862z"/><path d="m137.018 61.3307c0 .7085-.48 1.4886-1.448 2.3452l-2.189 1.9412c-.044.0511-.138.2617-.282.6205l-.554 1.3578c-.34.8212-.789 1.231-1.343 1.231-.524 0-.787-.4221-.787-1.2804 0-.1415.008-.3456.033-.6015.018-.2971.026-.5061.026-.6172.013-.3168-.091-.7776-.306-1.3866-.218-.6097-.326-1.0656-.326-1.3759 0-.2057.054-.3941.153-.5678.107-.1777.253-.2649.453-.2649.338 0 .605.5883.796 1.7601l.388 2.3157c.259-.2683.8-.8871 1.62-1.8483.384-.4435.716-.8179 1.005-1.1133l2.469-2.5156z"/><path d="m139.793 60.0321c0 .3694-.243.5562-.738.5562-.45 0-.678-.1868-.678-.5562 0-.1852.062-.4386.181-.7711.117-.33.18-.5744.187-.7431.106.0642.303.3555.589.8838.02.0297.114.1226.278.2749.122.116.181.2337.181.3555zm-1.446 4.2428c0 .1654-.286.9825-.863 2.4547-.074.186-.183.4575-.324.8163-.124.2798-.285.4551-.481.5258-.114.0412-.343.0626-.692.0626 0-.0708-.017-.1753-.039-.3086-.026-.1333-.04-.2329-.04-.3102 0-.2255.091-.4757.262-.7538.236-.3827.372-.6122.399-.6929.085-.26.246-.7118.48-1.3594.175-.4551.452-.8344.836-1.1447.309.3103.462.5448.462.7102z"/><path d="m147.035 61.3307c0 .7085-.485 1.4886-1.45 2.3452l-2.194 1.9412c-.039.0511-.13.2617-.274.6205l-.556 1.3578c-.342.8212-.79 1.231-1.342 1.231-.525 0-.789-.4221-.789-1.2804 0-.1415.01-.3456.033-.6015.019-.2971.028-.5061.028-.6172.011-.3168-.092-.7776-.307-1.3866-.217-.6097-.323-1.0656-.323-1.3759 0-.2057.051-.3941.151-.5678.104-.1777.254-.2649.451-.2649.341 0 .603.5883.797 1.7601l.393 2.3157c.254-.2683.794-.8871 1.617-1.8483.381-.4435.712-.8179 1.002-1.1133l2.472-2.5156z"/><path d="m149.814 60.0321c0 .3694-.247.5562-.742.5562-.451 0-.679-.1868-.679-.5562 0-.1852.065-.4386.181-.7711.118-.33.179-.5744.189-.7431.104.0642.301.3555.589.8838.017.0297.11.1226.277.2749.122.116.185.2337.185.3555zm-1.452 4.2428c0 .1654-.286.9825-.863 2.4547-.073.186-.181.4575-.324.8163-.122.2798-.283.4551-.48.5258-.112.0412-.342.0626-.691.0626 0-.0708-.015-.1753-.038-.3086-.028-.1333-.041-.2329-.041-.3102 0-.2255.088-.4757.26-.7538.241-.3827.371-.6122.403-.6929.084-.26.243-.7118.476-1.3594.176-.4551.455-.8344.834-1.1447.313.3103.464.5448.464.7102z"/><path d="m157.592 69.1514v-.0469h.029v-.0445h-.029v-.0954h.061v.0329h-.032v.0321h.032v.1218zm-.51-5.5274c0-.3662-.322-.5481-.958-.5481-.937 0-1.711.2074-2.329.6287-.576.3901-1.176.9192-1.786 1.5734-.786.8328-1.178 1.4911-1.178 1.9766 0 .288.125.5094.369.6641.22.1333.481.1975.789.1975.897 0 1.665-.3136 2.299-.9381.157-.1564.591-.7464 1.316-1.7767.438-.6344.866-.9562 1.278-.9562.133-.2855.2-.5546.2-.8212zm.558 5.2204c-.23.4938-.5.7373-.806.7373-.351 0-.731-.2551-1.162-.7694-.324-.3925-.592-.8113-.796-1.2664-.864.4131-1.45.6781-1.759.8031-.762.2996-1.376.4452-1.838.4452-.81 0-1.218-.4098-1.218-1.231 0-1.3257.717-2.5074 2.161-3.5516.473-.3358 1.108-.7028 1.913-1.0928.958-.4617 1.634-.6946 2.035-.6946.277 0 .541.1465.789.4485.246.2971.37.5917.37.8772 0 .5678-.226 1.3101-.672 2.2292-.448.9225-.671 1.4549-.671 1.5997 0 .4913.075.8336.227 1.0171.131.1556.601.3053 1.427.4485z"/><path d="m163.426 58.7527c0 .0593-.347.7217-1.032 1.9898l-2.009 3.6898c-.834 1.5413-1.293 2.4366-1.375 2.6843l-.309.9866c-.174.4115-.4.6172-.677.6172-.153 0-.332-.0354-.524-.1094l-.171-.2757c.112-.5373.498-1.3421 1.157-2.421l1.961-3.2257c.761-1.245 1.259-2.2917 1.499-3.1369.036-.1736.125-.4772.261-.9224.122-.3103.32-.5423.599-.6929.155.0156.298.1169.426.3004.129.1785.194.3505.194.5159z"/><path d="m166.449 60.0321c0 .3694-.248.5562-.739.5562-.454 0-.681-.1868-.681-.5562 0-.1852.058-.4386.178-.7711.121-.33.181-.5744.194-.7431.101.0642.293.3555.587.8838.018.0297.113.1226.272.2749.13.116.189.2337.189.3555zm-1.449 4.2428c0 .1654-.291.9825-.867 2.4547-.071.186-.177.4575-.322.8163-.124.2798-.284.4551-.478.5258-.111.0412-.345.0626-.697.0626 0-.0708-.011-.1753-.038-.3086-.028-.1333-.035-.2329-.035-.3102 0-.2255.082-.4757.259-.7538.235-.3827.371-.6122.403-.6929.084-.26.24-.7118.478-1.3594.174-.4551.453-.8344.831-1.1447.31.3103.466.5448.466.7102z"/><path d="m173.578 59.4455c0 .26-.086.548-.259.8632-.075.135-.391.5736-.945 1.3133.261.1745.52.3465.788.5094.29.2362.416.5061.387.8015l-.017.1703c-.012 0-.246-.074-.711-.2164-.294-.0921-.526-.1366-.693-.1366-.566 0-1.383.5958-2.446 1.7791-1.065 1.1907-1.599 2.0795-1.599 2.6646 0 .5044.458.8697 1.361 1.0928.577.1448 1.223.2139 1.945.2139.275 0 .558-.0165.846-.0592-.009.0543.038.1456.139.2789-.648.2444-1.288.372-1.929.372-2.315 0-3.47-.5695-3.47-1.701 0-.6665.581-1.6457 1.744-2.9459l1.325-1.482-.538-.0305c-.228-.0074-.532.0535-.914.1852-.749.2649-1.189.4048-1.325.4048-.173 0-.338-.0559-.487-.1654-.147-.1045-.224-.2427-.224-.4081 0-.4016.46-.6032 1.374-.6032.096 0 .226.0066.401.0197.174.005.309.0124.402.0124.781 0 1.429-.1333 1.94-.4032.506-.265.957-.7267 1.348-1.3866.134-.2271.446-.8616.942-1.9141.134 0 .271.0947.408.2774.14.1835.207.3522.207.4937z"/><path d="m179.843 61.6392c-.645.6345-1.054.9529-1.217.9406-.114 0-.246-.042-.4-.1226-.03-.0222-.158-.0913-.373-.2156l.11-.2181c.112-.2361.492-.6928 1.14-1.3726l.68-.7101c.317-.2979.596-.4485.834-.4485.306 0 .463.1506.463.4485 0 .3176-.41.8838-1.237 1.6984zm-.352 3.0991c-.313-.33-.687-.4938-1.13-.4938-.315 0-.607.0675-.863.2008-.011.0115-.273.1547-.789.4353.311.4905.731.7365 1.267.7365.611 0 1.11-.2921 1.515-.8788zm1.589 2.9632c-.307.3374-1.041.5966-2.194.7735-.811.1234-1.638.1827-2.485.1827-1.739 0-2.611-.4962-2.611-1.496 0-1.2212.907-2.2761 2.719-3.1501.631-.3069 1.285-.5595 1.964-.7537.658.1538 1.09.2682 1.31.339.461.1522.694.5398.694 1.1537 0 .5497-.351.9809-1.052 1.3002-.583.2674-1.18.404-1.789.404-.944 0-1.624-.1448-2.034-.4378-.517.251-.774.5678-.774.9579 0 .6896.629 1.0368 1.881 1.0368.464 0 1.004-.0337 1.624-.093 1.45-.1448 2.363-.2172 2.747-.2172z"/></g></g></svg>